<svg width="813" height="573" xmlns="http://www.w3.org/2000/svg" xmlns:xlink="http://www.w3.org/1999/xlink" overflow="hidden"><defs><clipPath id="clip0"><path d="M104 89 917 89 917 662 104 662Z" fill-rule="evenodd" clip-rule="evenodd"/></clipPath></defs><g clip-path="url(#clip0)" transform="translate(-104 -89)"><path d="M456.5 421.749C456.5 414.984 461.984 409.5 468.749 409.5L903.251 409.5C910.016 409.5 915.5 414.984 915.5 421.749L915.5 648.251C915.5 655.016 910.016 660.5 903.251 660.5L468.749 660.5C461.984 660.5 456.5 655.016 456.5 648.251Z" stroke="#000000" stroke-width="1.33333" stroke-miterlimit="8" fill="#FFFFFF" fill-rule="evenodd"/><path d="M456.5 304.89C456.5 298.047 462.047 292.5 468.89 292.5L903.11 292.5C909.953 292.5 915.5 298.047 915.5 304.89L915.5 392.11C915.5 398.953 909.953 404.5 903.11 404.5L468.89 404.5C462.047 404.5 456.5 398.953 456.5 392.11Z" stroke="#000000" stroke-width="1.33333" stroke-miterlimit="8" fill="#FFFFFF" fill-rule="evenodd"/><path d="M456.5 200.659C456.5 192.839 462.839 186.5 470.659 186.5L901.342 186.5C909.161 186.5 915.5 192.839 915.5 200.659L915.5 274.342C915.5 282.161 909.161 288.5 901.342 288.5L470.659 288.5C462.839 288.5 456.5 282.161 456.5 274.342Z" stroke="#000000" stroke-width="1.33333" stroke-miterlimit="8" fill="#FFFFFF" fill-rule="evenodd"/><path d="M456.5 106.5C456.5 98.7683 462.768 92.5001 470.5 92.5001L901.5 92.5001C909.232 92.5001 915.5 98.7683 915.5 106.5L915.5 162.5C915.5 170.232 909.232 176.5 901.5 176.5L470.5 176.5C462.768 176.5 456.5 170.232 456.5 162.5Z" stroke="#000000" stroke-width="1.33333" stroke-miterlimit="8" fill="#FFFFFF" fill-rule="evenodd"/><path d="M216 489 216 509.831 214 509.831 214 489ZM219 508.498 215 516.498 211 508.498Z"/><path d="M128.5 122C128.5 119.515 130.515 117.5 133 117.5L297 117.5C299.485 117.5 301.5 119.515 301.5 122L301.5 140C301.5 142.485 299.485 144.5 297 144.5L133 144.5C130.515 144.5 128.5 142.485 128.5 140Z" stroke="#000000" stroke-width="1.33333" stroke-miterlimit="8" fill="#FFFFFF" fill-rule="evenodd"/><text font-family="Calibri,Calibri_MSFontService,sans-serif" font-weight="400" font-size="16" transform="translate(167.599 135)">Population (N)</text><path d="M128.5 165.833C128.5 163.44 130.44 161.5 132.833 161.5L297.167 161.5C299.56 161.5 301.5 163.44 301.5 165.833L301.5 183.167C301.5 185.56 299.56 187.5 297.167 187.5L132.833 187.5C130.44 187.5 128.5 185.56 128.5 183.167Z" stroke="#000000" stroke-width="1.33333" stroke-miterlimit="8" fill="#FFFFFF" fill-rule="evenodd"/><text font-family="Calibri,Calibri_MSFontService,sans-serif" font-weight="400" font-size="16" transform="translate(156.183 179)">Fitness Evaluation</text><path d="M128.5 210C128.5 207.515 130.515 205.5 133 205.5L297 205.5C299.485 205.5 301.5 207.515 301.5 210L301.5 228C301.5 230.485 299.485 232.5 297 232.5L133 232.5C130.515 232.5 128.5 230.485 128.5 228Z" stroke="#000000" stroke-width="1.33333" stroke-miterlimit="8" fill="#FFFFFF" fill-rule="evenodd"/><text font-family="Calibri,Calibri_MSFontService,sans-serif" font-weight="400" font-size="16" transform="translate(182.599 222)">Crossover</text><path d="M128.5 252.833C128.5 250.44 130.44 248.5 132.833 248.5L297.167 248.5C299.56 248.5 301.5 250.44 301.5 252.833L301.5 270.167C301.5 272.56 299.56 274.5 297.167 274.5L132.833 274.5C130.44 274.5 128.5 272.56 128.5 270.167Z" stroke="#000000" stroke-width="1.33333" stroke-miterlimit="8" fill="#FFFFFF" fill-rule="evenodd"/><text font-family="Calibri,Calibri_MSFontService,sans-serif" font-weight="400" font-size="16" transform="translate(138.85 266)">Mutation (Single<tspan x="107.833" y="0">-</tspan><tspan x="112.667" y="0">atom)</tspan></text><path d="M128.5 296.833C128.5 294.44 130.44 292.5 132.833 292.5L297.167 292.5C299.56 292.5 301.5 294.44 301.5 296.833L301.5 314.167C301.5 316.56 299.56 318.5 297.167 318.5L132.833 318.5C130.44 318.5 128.5 316.56 128.5 314.167Z" stroke="#000000" stroke-width="1.33333" stroke-miterlimit="8" fill="#FFFFFF" fill-rule="evenodd"/><text font-family="Calibri,Calibri_MSFontService,sans-serif" font-weight="400" font-size="16" transform="translate(140.766 312)">Mutation (Multi-<tspan x="108.833" y="0">atom)</tspan></text><path d="M128.5 339C128.5 336.515 130.515 334.5 133 334.5L297 334.5C299.485 334.5 301.5 336.515 301.5 339L301.5 357C301.5 359.485 299.485 361.5 297 361.5L133 361.5C130.515 361.5 128.5 359.485 128.5 357Z" stroke="#000000" stroke-width="1.33333" stroke-miterlimit="8" fill="#FFFFFF" fill-rule="evenodd"/><text font-family="Calibri,Calibri_MSFontService,sans-serif" font-weight="400" font-size="16" transform="translate(155.132 351)">Fitness Evaluation</text><path d="M128.5 388.5C128.5 384.634 131.634 381.5 135.5 381.5L294.5 381.5C298.366 381.5 301.5 384.634 301.5 388.5L301.5 416.5C301.5 420.366 298.366 423.5 294.5 423.5L135.5 423.5C131.634 423.5 128.5 420.366 128.5 416.5Z" stroke="#000000" stroke-width="1.33333" stroke-miterlimit="8" fill="#FFFFFF" fill-rule="evenodd"/><text font-family="Calibri,Calibri_MSFontService,sans-serif" font-weight="400" font-size="16" transform="translate(151.766 398)">Diversity Check and <tspan x="33.8333" y="19">Selection</tspan></text><path d="M128.5 467.5 215 445.5 301.5 467.5 215 489.5Z" stroke="#000000" stroke-width="1.33333" stroke-linejoin="round" stroke-miterlimit="10" fill="#FFFFFF" fill-rule="evenodd"/><path d="M128.5 541 215 516.5 301.5 541 215 565.5Z" stroke="#000000" stroke-width="1.33333" stroke-linejoin="round" stroke-miterlimit="10" fill="#FFFFFF" fill-rule="evenodd"/><path d="M329.5 458C329.5 455.515 331.515 453.5 334 453.5L419 453.5C421.485 453.5 423.5 455.515 423.5 458L423.5 476C423.5 478.485 421.485 480.5 419 480.5L334 480.5C331.515 480.5 329.5 478.485 329.5 476Z" stroke="#000000" stroke-width="1.33333" stroke-miterlimit="8" fill="#FFFFFF" fill-rule="evenodd"/><text font-family="Calibri,Calibri_MSFontService,sans-serif" font-weight="400" font-size="16" transform="translate(334.542 472)">Replenishing<tspan x="-158.359" y="72">Converged?</tspan><tspan x="-157.065" y="-1">N</tspan><tspan font-size="11" x="-146.731" y="2">unique</tspan><tspan x="-112.565" y="-1">= N?</tspan></text><path d="M376.417 480 376.417 540.137C376.417 540.689 375.969 541.137 375.417 541.137L307.667 541.137 307.667 539.137 375.417 539.137 374.417 540.137 374.417 480ZM309 544.137 301 540.137 309 536.137Z"/><path d="M216 144 216 152.463 214 152.463 214 144ZM219 151.129 215 159.129 211 151.129Z"/><path d="M129.333 541.325 105.333 541.325C104.781 541.325 104.333 540.877 104.333 540.325L104.333 173C104.333 172.448 104.781 172 105.333 172L121.333 172 121.333 174 105.333 174 106.333 173 106.333 540.325 105.333 539.325 129.333 539.325ZM120 169 128 173 120 177Z"/><path d="M128.5 591.833C128.5 589.44 130.44 587.5 132.833 587.5L297.167 587.5C299.56 587.5 301.5 589.44 301.5 591.833L301.5 609.167C301.5 611.56 299.56 613.5 297.167 613.5L132.833 613.5C130.44 613.5 128.5 611.56 128.5 609.167Z" stroke="#000000" stroke-width="1.33333" stroke-miterlimit="8" fill="#FFFFFF" fill-rule="evenodd"/><text font-family="Calibri,Calibri_MSFontService,sans-serif" font-weight="400" font-size="16" transform="translate(150.433 605)">Final Population (N) </text><path d="M216 427 216 438.564 214 438.564 214 427ZM219 437.231 215 445.231 211 437.231Z"/><text font-family="Calibri,Calibri_MSFontService,sans-serif" font-weight="400" font-size="16" transform="translate(229.212 507)">Yes<tspan x="-114.397" y="24">No</tspan><tspan x="0" y="73">Yes</tspan><tspan x="76.8205" y="-48">No</tspan></text><rect x="564.5" y="457.5" width="34" height="8" stroke="#000000" stroke-width="1.33333" stroke-linejoin="round" stroke-miterlimit="10" fill="#FF0000"/><rect x="564.5" y="485.5" width="34" height="8" stroke="#000000" stroke-width="1.33333" stroke-linejoin="round" stroke-miterlimit="10" fill="#FFC266"/><rect x="564.5" y="472.5" width="34" height="7" stroke="#000000" stroke-width="1.33333" stroke-linejoin="round" stroke-miterlimit="10" fill="#FF0000"/><rect x="564.5" y="499.5" width="34" height="7" stroke="#000000" stroke-width="1.33333" stroke-linejoin="round" stroke-miterlimit="10" fill="#BDD7EE"/><rect x="564.5" y="513.5" width="34" height="7" stroke="#000000" stroke-width="1.33333" stroke-linejoin="round" stroke-miterlimit="10" fill="#008000"/><rect x="564.5" y="557.5" width="34" height="8" stroke="#000000" stroke-width="1.33333" stroke-linejoin="round" stroke-miterlimit="10" fill="#B8B8F6"/><rect x="564.5" y="584.5" width="34" height="7" stroke="#000000" stroke-width="1.33333" stroke-linejoin="round" stroke-miterlimit="10" fill="#FFC266"/><rect x="564.5" y="570.5" width="34" height="8" stroke="#000000" stroke-width="1.33333" stroke-linejoin="round" stroke-miterlimit="10" fill="#FF0000"/><rect x="564.5" y="599.5" width="34" height="7" stroke="#000000" stroke-width="1.33333" stroke-linejoin="round" stroke-miterlimit="10" fill="#47A3FF"/><rect x="564.5" y="613.5" width="34" height="8" stroke="#000000" stroke-width="1.33333" stroke-linejoin="round" stroke-miterlimit="10" fill="#008000"/><rect x="816.5" y="526.5" width="34" height="7" stroke="#000000" stroke-width="1.33333" stroke-linejoin="round" stroke-miterlimit="10" fill="#B8B8F6"/><rect x="816.5" y="551.5" width="34" height="8" stroke="#000000" stroke-width="1.33333" stroke-linejoin="round" stroke-miterlimit="10" fill="#FFC266"/><rect x="816.5" y="539.5" width="34" height="7" stroke="#000000" stroke-width="1.33333" stroke-linejoin="round" stroke-miterlimit="10" fill="#FF0000"/><rect x="816.5" y="566.5" width="34" height="7" stroke="#000000" stroke-width="1.33333" stroke-linejoin="round" stroke-miterlimit="10" fill="#47A3FF"/><rect x="816.5" y="581.5" width="34" height="7" stroke="#000000" stroke-width="1.33333" stroke-linejoin="round" stroke-miterlimit="10" fill="#BDD7EE"/><rect x="682.5" y="511.5" width="35" height="7.99997" stroke="#000000" stroke-width="1.33333" stroke-linejoin="round" stroke-miterlimit="10" fill="#B8B8F6"/><rect x="682.5" y="540.5" width="35" height="7" stroke="#000000" stroke-width="1.33333" stroke-linejoin="round" stroke-miterlimit="10" fill="#FFC266"/><rect x="682.5" y="526.5" width="35" height="8" stroke="#000000" stroke-width="1.33333" stroke-linejoin="round" stroke-miterlimit="10" fill="#FF0000"/><rect x="682.5" y="554.5" width="35" height="8" stroke="#000000" stroke-width="1.33333" stroke-linejoin="round" stroke-miterlimit="10" fill="#47A3FF"/><rect x="682.5" y="580.5" width="35" height="7" stroke="#000000" stroke-width="1.33333" stroke-linejoin="round" stroke-miterlimit="10" fill="#008000"/><rect x="682.5" y="567.5" width="35" height="7" stroke="#000000" stroke-width="1.33333" stroke-linejoin="round" stroke-miterlimit="10" fill="#BDD7EE"/><text font-family="Calibri,Calibri_MSFontService,sans-serif" font-weight="400" font-size="16" transform="translate(488.979 449)">Parent Population (N)<tspan x="-4.72736" y="199">Offspring Population (N)</tspan></text><path d="M650 448C652.485 448 654.5 448.336 654.5 448.75L654.5 545.25C654.5 545.664 656.515 546 659 546 656.515 546 654.5 546.336 654.5 546.75L654.5 643.25C654.5 643.664 652.485 644 650 644" stroke="#000000" stroke-width="2" stroke-linejoin="round" stroke-miterlimit="10" fill="none" fill-rule="evenodd"/><text font-family="Calibri,Calibri_MSFontService,sans-serif" font-weight="400" font-size="16" transform="translate(664.99 473)">Ranking of Unique <tspan x="0" y="19">Individuals (≥N)</tspan></text><path d="M731.004 547 792.899 547.249 792.891 549.249 730.996 549ZM791.578 544.243 799.561 548.276 791.545 552.243Z"/><text font-family="Calibri,Calibri_MSFontService,sans-serif" font-weight="400" font-size="16" transform="translate(735.544 531)">Selection</text><path d="M582 525.995 582.108 547.6 580.108 547.61 580 526.005ZM585.101 546.252 581.141 554.272 577.101 546.292Z"/><text font-family="Calibri,Calibri_MSFontService,sans-serif" font-weight="400" font-size="16" transform="translate(496.258 533)">Crossover, <tspan x="0" y="19">Mutation</tspan><tspan x="311.058" y="-46">New </tspan><tspan x="311.058" y="-27">Population (N)</tspan></text><rect x="592.5" y="129.5" width="89" height="6" stroke="#000000" stroke-width="1.33333" stroke-linejoin="round" stroke-miterlimit="10" fill="#BDD7EE"/><rect x="592.5" y="158.5" width="89" height="6" stroke="#000000" stroke-width="1.33333" stroke-linejoin="round" stroke-miterlimit="10" fill="#FFC0D5"/><rect x="618.5" y="129.5" width="45" height="6" stroke="#000000" stroke-width="1.33333" stroke-linejoin="round" stroke-miterlimit="10" fill="#84C0F2"/><rect x="618.5" y="158.5" width="45" height="6" stroke="#000000" stroke-width="1.33333" stroke-linejoin="round" stroke-miterlimit="10" fill="#FF0000"/><rect x="700.5" y="129.5" width="89" height="6" stroke="#000000" stroke-width="1.33333" stroke-linejoin="round" stroke-miterlimit="10" fill="#BDD7EE"/><rect x="700.5" y="158.5" width="89" height="6" stroke="#000000" stroke-width="1.33333" stroke-linejoin="round" stroke-miterlimit="10" fill="#FFC0D5"/><rect x="726.5" y="158.5" width="44" height="6" stroke="#000000" stroke-width="1.33333" stroke-linejoin="round" stroke-miterlimit="10" fill="#84C0F2"/><rect x="726.5" y="130.5" width="44" height="6" stroke="#000000" stroke-width="1.33333" stroke-linejoin="round" stroke-miterlimit="10" fill="#FF0000"/><path d="M0.201428-0.979503 101.439 19.8393 101.036 21.7983-0.201428 0.979503ZM100.737 16.6322 107.768 22.1617 99.126 24.4683Z" transform="matrix(1 0 0 -1 641 158.162)"/><path d="M641.209 134.022 742.457 155.63 742.039 157.586 640.791 135.978ZM741.779 152.418 748.768 158 740.109 160.242Z"/><text font-family="Calibri,Calibri_MSFontService,sans-serif" font-weight="400" font-size="16" transform="translate(510.743 139)">Parent 1<tspan x="0.0296326" y="29">Parent 2</tspan><tspan x="296.489" y="0">Offspring 1</tspan><tspan x="296.489" y="28">Offspring 2</tspan><tspan x="32.9394" y="-22">Occupied Site 1</tspan><tspan x="141.7" y="-22">Occupied Site 2</tspan><tspan x="-46.4379" y="64">Mutation (Single</tspan><tspan x="61.3955" y="64">-</tspan><tspan x="66.2288" y="64">atom)</tspan></text><path d="M546 285 561.75 222 693 222 677.25 285Z" fill="#D9D9D9" fill-rule="evenodd"/><path d="M583.954 246.211C579.569 236.08 584.192 224.235 594.282 219.755 604.371 215.276 616.106 219.857 620.491 229.989 622.585 234.825 622.692 240.309 620.79 245.249Z" stroke="#000000" stroke-width="1.33333" stroke-linejoin="round" stroke-miterlimit="10" fill="#84C0F2" fill-rule="evenodd"/><path d="M576.647 246.252C570.507 232.067 576.98 215.485 591.105 209.213 605.231 202.941 621.659 209.356 627.799 223.541 630.73 230.311 630.88 237.989 628.217 244.905Z" stroke="#000000" stroke-width="1.33333" stroke-linejoin="round" stroke-miterlimit="10" fill="#84C0F2" fill-rule="evenodd" fill-opacity="0.301961"/><path d="M573.5 268C573.5 266.067 575.067 264.5 577 264.5 578.933 264.5 580.5 266.067 580.5 268 580.5 269.933 578.933 271.5 577 271.5 575.067 271.5 573.5 269.933 573.5 268Z" stroke="#000000" stroke-width="1.33333" stroke-linejoin="round" stroke-miterlimit="10" fill="#84C0F2" fill-rule="evenodd"/><path d="M0.992695-0.120653 4.45879 28.3973 2.4734 28.6386-0.992695 0.120653ZM7.276 26.7118 4.27045 35.136-0.665554 27.677Z" transform="matrix(1 0 0 -1 577 264.136)"/><path d="M634.5 266.5C634.5 264.291 636.067 262.5 638 262.5 639.933 262.5 641.5 264.291 641.5 266.5 641.5 268.709 639.933 270.5 638 270.5 636.067 270.5 634.5 268.709 634.5 266.5Z" stroke="#000000" stroke-width="1.33333" stroke-linejoin="round" stroke-miterlimit="10" fill="#84C0F2" fill-rule="evenodd"/><path d="M615.5 271C615.5 269.067 617.291 267.5 619.5 267.5 621.709 267.5 623.5 269.067 623.5 271 623.5 272.933 621.709 274.5 619.5 274.5 617.291 274.5 615.5 272.933 615.5 271Z" stroke="#000000" stroke-width="1.33333" stroke-linejoin="round" stroke-miterlimit="10" fill="#84C0F2" fill-rule="evenodd"/><path d="M579.5 225C579.5 223.067 581.067 221.5 583 221.5 584.933 221.5 586.5 223.067 586.5 225 586.5 226.933 584.933 228.5 583 228.5 581.067 228.5 579.5 226.933 579.5 225Z" stroke="#000000" stroke-width="1.33333" stroke-linejoin="round" stroke-miterlimit="10" stroke-dasharray="1.33333 1.33333" fill="#84C0F2" fill-rule="evenodd"/><path d="M708 285 723.75 222 856 222 840.25 285Z" fill="#D9D9D9" fill-rule="evenodd"/><path d="M746.653 246.211C742.268 236.08 746.891 224.235 756.981 219.755 767.07 215.276 778.805 219.857 783.19 229.989 785.284 234.825 785.391 240.309 783.489 245.249Z" stroke="#000000" stroke-width="1.33333" stroke-linejoin="round" stroke-miterlimit="10" fill="#84C0F2" fill-rule="evenodd"/><path d="M739.346 246.252C733.206 232.067 739.679 215.485 753.804 209.213 767.93 202.941 784.358 209.356 790.498 223.541 793.428 230.311 793.578 237.989 790.915 244.905Z" stroke="#000000" stroke-width="1.33333" stroke-linejoin="round" stroke-miterlimit="10" fill="#84C0F2" fill-rule="evenodd" fill-opacity="0.301961"/><path d="M770.5 229.5C770.5 227.291 772.067 225.5 774 225.5 775.933 225.5 777.5 227.291 777.5 229.5 777.5 231.709 775.933 233.5 774 233.5 772.067 233.5 770.5 231.709 770.5 229.5Z" stroke="#000000" stroke-width="1.33333" stroke-linejoin="round" stroke-miterlimit="10" fill="#84C0F2" fill-rule="evenodd"/><path d="M768.837 228.69 756.459 226.929 756.741 224.949 769.118 226.71ZM757.357 230.087 750 225 758.484 222.167Z"/><path d="M796.5 266.5C796.5 264.291 798.291 262.5 800.5 262.5 802.709 262.5 804.5 264.291 804.5 266.5 804.5 268.709 802.709 270.5 800.5 270.5 798.291 270.5 796.5 268.709 796.5 266.5Z" stroke="#000000" stroke-width="1.33333" stroke-linejoin="round" stroke-miterlimit="10" fill="#84C0F2" fill-rule="evenodd"/><path d="M778.5 271C778.5 269.067 780.291 267.5 782.5 267.5 784.709 267.5 786.5 269.067 786.5 271 786.5 272.933 784.709 274.5 782.5 274.5 780.291 274.5 778.5 272.933 778.5 271Z" stroke="#000000" stroke-width="1.33333" stroke-linejoin="round" stroke-miterlimit="10" fill="#84C0F2" fill-rule="evenodd"/><path d="M742.5 225C742.5 223.067 744.067 221.5 746 221.5 747.933 221.5 749.5 223.067 749.5 225 749.5 226.933 747.933 228.5 746 228.5 744.067 228.5 742.5 226.933 742.5 225Z" stroke="#000000" stroke-width="1.33333" stroke-linejoin="round" stroke-miterlimit="10" stroke-dasharray="1.33333 1.33333" fill="#84C0F2" fill-rule="evenodd"/><path d="M532 401 547.75 338 680 338 664.25 401Z" fill="#D9D9D9" fill-rule="evenodd"/><path d="M570.467 362.104C566.082 351.973 570.705 340.128 580.795 335.648 590.884 331.168 602.619 335.75 607.005 345.882 609.098 350.718 609.205 356.202 607.303 361.142Z" stroke="#000000" stroke-width="1.33333" stroke-linejoin="round" stroke-miterlimit="10" fill="#84C0F2" fill-rule="evenodd"/><path d="M563.16 362.145C557.02 347.96 563.493 331.378 577.619 325.106 591.744 318.834 608.172 325.249 614.312 339.434 617.243 346.204 617.393 353.882 614.73 360.798Z" stroke="#000000" stroke-width="1.33333" stroke-linejoin="round" stroke-miterlimit="10" fill="#84C0F2" fill-rule="evenodd" fill-opacity="0.301961"/><path d="M641.5 359C641.5 357.067 643.067 355.5 645 355.5 646.933 355.5 648.5 357.067 648.5 359 648.5 360.933 646.933 362.5 645 362.5 643.067 362.5 641.5 360.933 641.5 359Z" stroke="#000000" stroke-width="1.33333" stroke-linejoin="round" stroke-miterlimit="10" fill="#84C0F2" fill-rule="evenodd"/><path d="M559.5 384C559.5 382.067 561.291 380.5 563.5 380.5 565.709 380.5 567.5 382.067 567.5 384 567.5 385.933 565.709 387.5 563.5 387.5 561.291 387.5 559.5 385.933 559.5 384Z" stroke="#000000" stroke-width="1.33333" stroke-linejoin="round" stroke-miterlimit="10" fill="#84C0F2" fill-rule="evenodd"/><path d="M0.992695-0.120653 4.45879 28.3973 2.4734 28.6386-0.992695 0.120653ZM7.276 26.7118 4.27045 35.136-0.665554 27.677Z" transform="matrix(1 0 0 -1 564 380.136)"/><path d="M641.148 357.355 614.871 347.314 615.584 345.445 641.862 355.486ZM615.045 350.592 609 344 617.901 343.119Z"/><path d="M690 400 705.75 337 837 337 821.25 400Z" fill="#D9D9D9" fill-rule="evenodd"/><path d="M741.223 366.557C734.206 350.346 741.604 331.394 757.747 324.227 773.89 317.059 792.665 324.39 799.683 340.601 803.032 348.338 803.203 357.113 800.16 365.017Z" stroke="#000000" stroke-width="1.33333" stroke-linejoin="round" stroke-miterlimit="10" fill="#84C0F2" fill-rule="evenodd"/><path d="M726.471 366.957C715.946 342.641 727.043 314.213 751.258 303.462 775.472 292.711 803.635 303.707 814.161 328.023 819.185 339.629 819.442 352.792 814.877 364.648Z" stroke="#000000" stroke-width="1.33333" stroke-linejoin="round" stroke-miterlimit="10" fill="#84C0F2" fill-rule="evenodd" fill-opacity="0.301961"/><path d="M602.5 387C602.5 385.067 604.067 383.5 606 383.5 607.933 383.5 609.5 385.067 609.5 387 609.5 388.933 607.933 390.5 606 390.5 604.067 390.5 602.5 388.933 602.5 387Z" stroke="#000000" stroke-width="1.33333" stroke-linejoin="round" stroke-miterlimit="10" fill="#84C0F2" fill-rule="evenodd"/><path d="M741.5 336C741.5 334.067 743.067 332.5 745 332.5 746.933 332.5 748.5 334.067 748.5 336 748.5 337.933 746.933 339.5 745 339.5 743.067 339.5 741.5 337.933 741.5 336Z" stroke="#000000" stroke-width="1.33333" stroke-linejoin="round" stroke-miterlimit="10" fill="#84C0F2" fill-rule="evenodd"/><path d="M770.5 319C770.5 317.067 772.291 315.5 774.5 315.5 776.709 315.5 778.5 317.067 778.5 319 778.5 320.933 776.709 322.5 774.5 322.5 772.291 322.5 770.5 320.933 770.5 319Z" stroke="#000000" stroke-width="1.33333" stroke-linejoin="round" stroke-miterlimit="10" stroke-dasharray="1.33333 1.33333" fill="#84C0F2" fill-rule="evenodd"/><path d="M0.513681-0.857981 16.8858 8.94414 15.8584 10.6601-0.513681 0.857981ZM17.2828 5.68529 22.092 13.2267 13.1734 12.5491Z" transform="matrix(1 0 0 -1 748 331.227)"/><path d="M777.5 344C777.5 342.067 779.291 340.5 781.5 340.5 783.709 340.5 785.5 342.067 785.5 344 785.5 345.933 783.709 347.5 781.5 347.5 779.291 347.5 777.5 345.933 777.5 344Z" stroke="#000000" stroke-width="1.33333" stroke-linejoin="round" stroke-miterlimit="10" fill="#84C0F2" fill-rule="evenodd"/><path d="M786.5 323C786.5 321.067 788.291 319.5 790.5 319.5 792.709 319.5 794.5 321.067 794.5 323 794.5 324.933 792.709 326.5 790.5 326.5 788.291 326.5 786.5 324.933 786.5 323Z" stroke="#000000" stroke-width="1.33333" stroke-linejoin="round" stroke-miterlimit="10" stroke-dasharray="1.33333 1.33333" fill="#84C0F2" fill-rule="evenodd"/><path d="M0.959245-0.282575 3.03835 6.77526 1.11986 7.34042-0.959245 0.282575ZM5.53932 4.64855 3.96294 13.4528-2.13464 6.90915Z" transform="matrix(1 0 0 -1 784 341.453)"/><path d="M565.5 341C565.5 339.067 567.291 337.5 569.5 337.5 571.709 337.5 573.5 339.067 573.5 341 573.5 342.933 571.709 344.5 569.5 344.5 567.291 344.5 565.5 342.933 565.5 341Z" stroke="#000000" stroke-width="1.33333" stroke-linejoin="round" stroke-miterlimit="10" stroke-dasharray="1.33333 1.33333" fill="#84C0F2" fill-rule="evenodd"/><path d="M603.5 341C603.5 339.067 605.067 337.5 607 337.5 608.933 337.5 610.5 339.067 610.5 341 610.5 342.933 608.933 344.5 607 344.5 605.067 344.5 603.5 342.933 603.5 341Z" stroke="#000000" stroke-width="1.33333" stroke-linejoin="round" stroke-miterlimit="10" stroke-dasharray="1.33333 1.33333" fill="#84C0F2" fill-rule="evenodd"/><path d="M582.5 333C582.5 331.067 584.291 329.5 586.5 329.5 588.709 329.5 590.5 331.067 590.5 333 590.5 334.933 588.709 336.5 586.5 336.5 584.291 336.5 582.5 334.933 582.5 333Z" stroke="#000000" stroke-width="1.33333" stroke-linejoin="round" stroke-miterlimit="10" stroke-dasharray="1.33333 1.33333" fill="#84C0F2" fill-rule="evenodd"/><path d="M601.451 381.264 590.031 344.662 591.94 344.066 603.36 380.669ZM587.564 346.828 589 338 595.201 344.446Z"/><text font-family="Calibri,Calibri_MSFontService,sans-serif" font-weight="400" font-size="16" transform="translate(464.305 309)">Mutation (Multi-<tspan x="108.833" y="0">atom)</tspan><tspan x="0" y="-200">Crossover</tspan><tspan x="0" y="116">Diversity Check and </tspan><tspan x="131" y="116">S</tspan><tspan x="138.333" y="116">election</tspan></text><path d="M216 187 216 197.631 214 197.631 214 187ZM219 196.298 215 204.298 211 196.298Z"/><path d="M0.999999-0.00126562 1.01497 11.8305-0.985025 11.8331-0.999999 0.00126562ZM4.01328 10.4934 0.0234121 18.4985-3.98671 10.5035Z" transform="matrix(-1 -8.74228e-08 -8.74228e-08 1 215.023 231)"/><path d="M216 275 216 285.812 214 285.812 214 275ZM219 284.479 215 292.479 211 284.479Z"/><path d="M216 319 216 327.314 214 327.314 214 319ZM219 325.98 215 333.98 211 325.98Z"/><path d="M216 361 216 374.522 214 374.522 214 361ZM219 373.189 215 381.189 211 373.189Z"/><path d="M216 565 216 579.266 214 579.266 214 565ZM219 577.932 215 585.932 211 577.932Z"/><path d="M0.000436517-1 20.7519-0.990941 20.7511 1.00906-0.000436517 1ZM19.4199-3.99152 27.4182 0.0119685 19.4164 4.00848Z" transform="matrix(1 0 0 -1 301 467.012)"/><path d="M0-1 8-1 8 1 0 1ZM14-1 22-1 22 1 14 1ZM28-1 36-1 36 1 28 1ZM42-1 50-1 50 1 42 1ZM56-1 64-1 64 1 56 1ZM70-1 78-1 78 1 70 1ZM84-1 92-1 92 1 84 1ZM98-1 106-1 106 1 98 1ZM112-1 120-1 120 1 112 1ZM126-1 132.058-1C132.61-1 133.058-0.552285 133.058 0L133.058 1.94232 131.058 1.94232 131.058 0 132.058 1 126 1ZM133.058 7.94232 133.058 15.9423 131.058 15.9423 131.058 7.94232ZM133.058 21.9423 133.058 29.9423 131.058 29.9423 131.058 21.9423ZM133.058 35.9423 133.058 43.9423 131.058 43.9423 131.058 35.9423ZM133.058 49.9423 133.058 57.9423 131.058 57.9423 131.058 49.9423ZM133.058 63.9423 133.058 71.9423 131.058 71.9423 131.058 63.9423ZM133.058 77.9423 133.058 84.1986 132.058 83.1986 133.801 83.1986 133.801 85.1986 132.058 85.1986C131.505 85.1986 131.058 84.7509 131.058 84.1986L131.058 77.9423ZM139.801 83.1986 147.801 83.1986 147.801 85.1986 139.801 85.1986ZM153.801 83.1986 154.903 83.1986 154.903 85.1986 153.801 85.1986ZM0 2.66667C-1.47276 2.66667-2.66667 1.47276-2.66667 0-2.66667-1.47276-1.47276-2.66667 0-2.66667 1.47276-2.66667 2.66667-1.47276 2.66667 0 2.66667 1.47276 1.47276 2.66667 0 2.66667ZM154.903 81.532C156.376 81.532 157.569 82.7259 157.569 84.1986 157.569 85.6714 156.376 86.8653 154.903 86.8653 153.43 86.8653 152.236 85.6714 152.236 84.1986 152.236 82.7259 153.43 81.532 154.903 81.532Z" transform="matrix(1 0 0 -1 301 218.199)"/><path d="M0-1 8-1 8 1 0 1ZM14-1 22-1 22 1 14 1ZM28-1 36-1 36 1 28 1ZM42-1 50-1 50 1 42 1ZM56-1 64-1 64 1 56 1ZM70-1 78-1 78 1 70 1ZM84-1 92-1 92 1 84 1ZM98-1 106-1 106 1 98 1ZM112-1 120-1 120 1 112 1ZM126-1 132.938-1C133.49-1 133.938-0.552285 133.938 0L133.938 1.06227 131.938 1.06227 131.938 0 132.938 1 126 1ZM133.938 7.06227 133.938 15.0623 131.938 15.0623 131.938 7.06227ZM133.938 21.0623 133.938 23.3524 132.938 22.3524 138.648 22.3524 138.648 24.3524 132.938 24.3524C132.385 24.3524 131.938 23.9047 131.938 23.3524L131.938 21.0623ZM144.648 22.3524 152.648 22.3524 152.648 24.3524 144.648 24.3524ZM0 2.66667C-1.47276 2.66667-2.66667 1.47276-2.66667 0-2.66667-1.47276-1.47276-2.66667 0-2.66667 1.47276-2.66667 2.66667-1.47276 2.66667 0 2.66667 1.47276 1.47276 2.66667 0 2.66667ZM154.903 20.6858C156.376 20.6858 157.57 21.8797 157.57 23.3524 157.57 24.8252 156.376 26.0191 154.903 26.0191 153.43 26.0191 152.236 24.8252 152.236 23.3524 152.236 21.8797 153.43 20.6858 154.903 20.6858Z" transform="matrix(1 0 0 -1 301 260.352)"/><path d="M301 304 309 304 309 306 301 306ZM315 304 323 304 323 306 315 306ZM329 304 337 304 337 306 329 306ZM343 304 351 304 351 306 343 306ZM357 304 365 304 365 306 357 306ZM371 304 379 304 379 306 371 306ZM385 304 393 304 393 306 385 306ZM399 304 407 304 407 306 399 306ZM413 304 421 304 421 306 413 306ZM427 304 435 304 435 306 427 306ZM437.634 309.366 437.634 317.366 435.634 317.366 435.634 309.366ZM437.634 323.366 437.634 331.366 435.634 331.366 435.634 323.366ZM437.634 337.366 437.634 345.366 435.634 345.366 435.634 337.366ZM440.031 346.969 448.031 346.969 448.031 348.969 440.031 348.969ZM454.031 346.969 456.013 346.969 456.013 348.969 454.031 348.969ZM301 307.667C299.527 307.667 298.333 306.473 298.333 305 298.333 303.527 299.527 302.333 301 302.333 302.473 302.333 303.667 303.527 303.667 305 303.667 306.473 302.473 307.667 301 307.667ZM456.013 345.302C457.485 345.302 458.679 346.496 458.679 347.969 458.679 349.442 457.485 350.636 456.013 350.636 454.54 350.636 453.346 349.442 453.346 347.969 453.346 346.496 454.54 345.302 456.013 345.302Z"/><path d="M302 402 310 402 310 404 302 404ZM316 402 324 402 324 404 316 404ZM330 402 338 402 338 404 330 404ZM344 402 352 402 352 404 344 404ZM358 402 366 402 366 404 358 404ZM372 402 380 402 380 404 372 404ZM386 402 394 402 394 404 386 404ZM400 402 408 402 408 404 400 404ZM414 402 422 402 422 404 414 404ZM428 402 434.469 402C435.021 402 435.469 402.448 435.469 403L435.469 404.531 433.469 404.531 433.469 403 434.469 404 428 404ZM435.469 410.531 435.469 418.531 433.469 418.531 433.469 410.531ZM435.469 424.531 435.469 432.531 433.469 432.531 433.469 424.531ZM435.469 438.531 435.469 446.531 433.469 446.531 433.469 438.531ZM435.469 452.531 435.469 460.531 433.469 460.531 433.469 452.531ZM435.469 466.531 435.469 474.531 433.469 474.531 433.469 466.531ZM435.469 480.531 435.469 488.531 433.469 488.531 433.469 480.531ZM435.469 494.531 435.469 502.531 433.469 502.531 433.469 494.531ZM435.469 508.531 435.469 516.531 433.469 516.531 433.469 508.531ZM435.469 522.531 435.469 530.531 433.469 530.531 433.469 522.531ZM436.286 533.714 444.286 533.714 444.286 535.714 436.286 535.714ZM450.286 533.714 456.346 533.714 456.346 535.714 450.286 535.714ZM302 405.667C300.527 405.667 299.333 404.473 299.333 403 299.333 401.527 300.527 400.333 302 400.333 303.473 400.333 304.667 401.527 304.667 403 304.667 404.473 303.473 405.667 302 405.667ZM456.346 532.048C457.819 532.048 459.012 533.242 459.012 534.714 459.012 536.187 457.819 537.381 456.346 537.381 454.873 537.381 453.679 536.187 453.679 534.714 453.679 533.242 454.873 532.048 456.346 532.048Z"/></g></svg>