<svg width="665" height="395" xmlns="http://www.w3.org/2000/svg" xmlns:xlink="http://www.w3.org/1999/xlink" overflow="hidden"><defs><clipPath id="clip0"><path d="M308 236 973 236 973 631 308 631Z" fill-rule="evenodd" clip-rule="evenodd"/></clipPath></defs><g clip-path="url(#clip0)" transform="translate(-308 -236)"><path d="M451.5 613C451.5 604.992 475.229 598.5 504.5 598.5 533.771 598.5 557.5 604.992 557.5 613 557.5 621.008 533.771 627.5 504.5 627.5 475.229 627.5 451.5 621.008 451.5 613Z" stroke="#000000" stroke-width="1.33333" stroke-miterlimit="8" fill="#DEEBF7" fill-rule="evenodd"/><path d="M724.5 326.5 735.75 281.5 967.5 281.5 956.25 326.5Z" stroke="#000000" stroke-width="1.33333" stroke-miterlimit="8" fill="#DEEBF7" fill-rule="evenodd"/><path d="M361.5 266.5 368.75 237.5 649.5 237.5 642.25 266.5Z" stroke="#000000" stroke-width="1.33333" stroke-miterlimit="8" fill="#DEEBF7" fill-rule="evenodd"/><text font-family="Calibri,Calibri_MSFontService,sans-serif" font-weight="700" font-size="16" transform="translate(744.502 267)">Active Learning</text><path d="M1-5.39418e-06 1.00007 12.7963-0.999931 12.7963-1 5.39418e-06ZM4.00006 11.463 0.000104987 19.463-3.99994 11.463Z" transform="matrix(-1 -8.74228e-08 -8.74228e-08 1 504 317)"/><path d="M312.5 555.5 504.5 540.5 696.5 555.5 504.5 570.5Z" stroke="#000000" stroke-width="1.33333" stroke-linejoin="round" stroke-miterlimit="10" fill="#DEEBF7" fill-rule="evenodd"/><text font-family="Calibri,Calibri_MSFontService,sans-serif" font-weight="400" font-size="16" transform="translate(371.885 256)">Calculate initial DFT energies/structures </text><path d="M312.5 393.334C312.5 390.664 314.664 388.5 317.334 388.5L691.666 388.5C694.336 388.5 696.5 390.664 696.5 393.334L696.5 412.666C696.5 415.336 694.336 417.5 691.666 417.5L317.334 417.5C314.664 417.5 312.5 415.336 312.5 412.666Z" stroke="#000000" stroke-width="1.33333" stroke-miterlimit="8" fill="#DEEBF7" fill-rule="evenodd"/><text font-family="Calibri,Calibri_MSFontService,sans-serif" font-weight="400" font-size="16" transform="translate(361.107 407)">Train LASSO-<tspan x="82.8333" y="0">assisted cluster expansion (CE)</tspan></text><path d="M312.5 444.334C312.5 441.664 314.664 439.5 317.334 439.5L691.666 439.5C694.336 439.5 696.5 441.664 696.5 444.334L696.5 463.666C696.5 466.336 694.336 468.5 691.666 468.5L317.334 468.5C314.664 468.5 312.5 466.336 312.5 463.666Z" stroke="#000000" stroke-width="1.33333" stroke-miterlimit="8" fill="#DEEBF7" fill-rule="evenodd"/><text font-family="Calibri,Calibri_MSFontService,sans-serif" font-weight="400" font-size="16" transform="translate(358.466 457)">Minimize energy of supported <tspan x="199.667" y="0">Pd</tspan><tspan font-size="11" x="216.333" y="3">n</tspan><tspan x="225.667" y="0">structures</tspan></text><path d="M312.5 494.334C312.5 491.664 314.664 489.5 317.334 489.5L691.666 489.5C694.336 489.5 696.5 491.664 696.5 494.334L696.5 513.666C696.5 516.336 694.336 518.5 691.666 518.5L317.334 518.5C314.664 518.5 312.5 516.336 312.5 513.666Z" stroke="#000000" stroke-width="1.33333" stroke-miterlimit="8" fill="#DEEBF7" fill-rule="evenodd"/><text font-family="Calibri,Calibri_MSFontService,sans-serif" font-weight="400" font-size="16" transform="translate(412.133 508)">Select <tspan x="42.8333" y="0">low energy </tspan>structures<tspan x="327.507" y="-211">Calculate DFT energies/structures </tspan><tspan x="374.927" y="-192">for new candidates </tspan><tspan x="53.4999" y="50">Converged?</tspan><tspan x="58.5" y="108">Terminate</tspan></text><path d="M0-1 201.613-1C202.166-1 202.613-0.552285 202.613 0L202.613 223.461 200.613 223.461 200.613 0 201.613 1 0 1ZM205.613 222.128 201.613 230.128 197.613 222.128Z" transform="matrix(1 0 0 -1 696 555.128)"/><path d="M3.24539e-06-1 25.6828-0.999917 25.6828 1.00008-3.24539e-06 1ZM24.3495-3.99992 32.3495 0.000104987 24.3495 4.00008Z" transform="matrix(-1 -8.74228e-08 -8.74228e-08 1 728.349 303)"/><text font-family="Calibri,Calibri_MSFontService,sans-serif" font-weight="700" font-size="16" transform="translate(474.422 588)">Yes<tspan x="229.261" y="-40">No</tspan></text><path d="M505 417 505 433.066 503 433.066 503 417ZM508 431.733 504 439.733 500 431.733Z"/><path d="M505 467 505 484.333 503 484.333 503 467ZM508 483 504 491 500 483Z"/><path d="M505 518 505 533.296 503 533.296 503 518ZM508 531.963 504 539.963 500 531.963Z"/><path d="M505 573 505 590.333 503 590.333 503 573ZM508 589 504 597 500 589Z"/><path d="M312.5 294.334C312.5 291.664 314.664 289.5 317.334 289.5L691.666 289.5C694.336 289.5 696.5 291.664 696.5 294.334L696.5 313.666C696.5 316.336 694.336 318.5 691.666 318.5L317.334 318.5C314.664 318.5 312.5 316.336 312.5 313.666Z" stroke="#000000" stroke-width="1.33333" stroke-miterlimit="8" fill="#DEEBF7" fill-rule="evenodd"/><text font-family="Calibri,Calibri_MSFontService,sans-serif" font-weight="400" font-size="16" transform="translate(385.799 308)">Map DFT structures to lattice graphs</text><path d="M0.999748-0.0224566 1.34337 15.2753-0.656125 15.3202-0.999748 0.0224566ZM4.31267 13.8749 0.493333 21.9627-3.68531 14.0546Z" transform="matrix(-1 -8.74228e-08 -8.74228e-08 1 504.493 266)"/><text font-family="Calibri,Calibri_MSFontService,sans-serif" font-weight="700" font-size="16" transform="translate(738.165 407)">Energy Model</text><path d="M721 407.5 721 404.75 707.5 404.75 707.5 399.25 721 399.25 721 396.5 726.5 402Z" stroke="#000000" stroke-width="2.66667" stroke-miterlimit="8" fill-rule="evenodd"/><text font-family="Calibri,Calibri_MSFontService,sans-serif" font-weight="700" font-size="16" transform="translate(707.796 483)">Structure Optimization</text><path d="M717.513 463.109 719.297 460.981 708.537 451.965 712.104 447.707 722.864 456.723 724.648 454.594 725.338 462.419Z" stroke="#000000" stroke-width="2.66667" stroke-miterlimit="8" fill-rule="evenodd"/><path d="M724.588 502.51 723.059 500.191 711.34 507.919 708.282 503.282 720.001 495.554 718.472 493.235 726.167 494.815Z" stroke="#000000" stroke-width="2.66667" stroke-miterlimit="8" fill-rule="evenodd"/><path d="M311.5 342.334C311.5 339.664 313.664 337.5 316.334 337.5L690.666 337.5C693.336 337.5 695.5 339.664 695.5 342.334L695.5 361.666C695.5 364.336 693.336 366.5 690.666 366.5L316.334 366.5C313.664 366.5 311.5 364.336 311.5 361.666Z" stroke="#000000" stroke-width="1.33333" stroke-miterlimit="8" fill="#DEEBF7" fill-rule="evenodd"/><text font-family="Calibri,Calibri_MSFontService,sans-serif" font-weight="400" font-size="16" transform="translate(360.105 356)">Generate configurations/ <tspan x="167.833" y="0">isomorphic </tspan><tspan x="244" y="0">graphs </tspan></text><path d="M1-5.25771e-06 1.00007 13.3015-0.99993 13.3015-1 5.25771e-06ZM4.00006 11.9682 0.000104987 19.9682-3.99994 11.9682Z" transform="matrix(-1 -8.74228e-08 -8.74228e-08 1 504 367)"/></g></svg>